<?xml version="1.0" encoding="UTF-8" standalone="no"?>
<!-- Created with Inkscape (http://www.inkscape.org/) -->

<svg
   xmlns:dc="http://purl.org/dc/elements/1.1/"
   xmlns:cc="http://creativecommons.org/ns#"
   xmlns:rdf="http://www.w3.org/1999/02/22-rdf-syntax-ns#"
   xmlns:svg="http://www.w3.org/2000/svg"
   xmlns="http://www.w3.org/2000/svg"
   xmlns:sodipodi="http://sodipodi.sourceforge.net/DTD/sodipodi-0.dtd"
   xmlns:inkscape="http://www.inkscape.org/namespaces/inkscape"
   id="svg2"
   version="1.1"
   inkscape:version="0.92.5 (2060ec1f9f, 2020-04-08)"
   width="512"
   height="512"
   sodipodi:docname="dssd.svg"
   viewBox="0 0 512 512">
  <metadata
     id="metadata8">
    <rdf:RDF>
      <cc:Work
         rdf:about="">
        <dc:format>image/svg+xml</dc:format>
        <dc:type
           rdf:resource="http://purl.org/dc/dcmitype/StillImage" />
        <dc:title></dc:title>
      </cc:Work>
    </rdf:RDF>
  </metadata>
  <defs
     id="defs6">
    <filter
       height="1"
       width="1"
       y="0"
       x="0"
       style="color-interpolation-filters:sRGB;"
       inkscape:label="Blur"
       id="filter1076">
      <feGaussianBlur
         stdDeviation="61.42 20.93"
         result="blur"
         id="feGaussianBlur1070" />
      <feColorMatrix
         values="1 0 0 0 0 0 1 0 0 0 0 0 1 0 0 0 0 0 50 0 "
         result="colormatrix"
         id="feColorMatrix1072" />
      <feComposite
         in="colormatrix"
         in2="SourceGraphic"
         operator="in"
         id="feComposite1074" />
    </filter>
    <filter
       height="1"
       width="1"
       y="0"
       x="0"
       style="color-interpolation-filters:sRGB;"
       inkscape:label="Blur"
       id="filter1076-9">
      <feGaussianBlur
         stdDeviation="61.42 20.93"
         result="blur"
         id="feGaussianBlur1070-3" />
      <feColorMatrix
         values="1 0 0 0 0 0 1 0 0 0 0 0 1 0 0 0 0 0 50 0 "
         result="colormatrix"
         id="feColorMatrix1072-6" />
      <feComposite
         in="colormatrix"
         in2="SourceGraphic"
         operator="in"
         id="feComposite1074-0"
         result="fbSourceGraphic" />
      <feColorMatrix
         result="fbSourceGraphicAlpha"
         in="fbSourceGraphic"
         values="0 0 0 -1 0 0 0 0 -1 0 0 0 0 -1 0 0 0 0 1 0"
         id="feColorMatrix1180" />
      <feGaussianBlur
         id="feGaussianBlur1182"
         stdDeviation="32.07 34.7891"
         result="blur"
         in="fbSourceGraphic" />
    </filter>
    <filter
       style="color-interpolation-filters:sRGB;"
       inkscape:label="Blur"
       id="filter1186">
      <feGaussianBlur
         stdDeviation="32.07 34.7891"
         result="blur"
         id="feGaussianBlur1184" />
    </filter>
    <filter
       style="color-interpolation-filters:sRGB;"
       inkscape:label="Blur"
       id="filter1190">
      <feGaussianBlur
         stdDeviation="32.07 34.7891"
         result="blur"
         id="feGaussianBlur1188" />
    </filter>
  </defs>
  <sodipodi:namedview
     pagecolor="#ffffff"
     bordercolor="#666666"
     borderopacity="1"
     objecttolerance="10"
     gridtolerance="10"
     guidetolerance="10"
     inkscape:pageopacity="0"
     inkscape:pageshadow="2"
     inkscape:window-width="1366"
     inkscape:window-height="739"
     id="namedview4"
     showgrid="false"
     inkscape:zoom="0.38964845"
     inkscape:cx="-455.76954"
     inkscape:cy="285.87298"
     inkscape:window-x="0"
     inkscape:window-y="0"
     inkscape:window-maximized="1"
     inkscape:current-layer="svg2"
     inkscape:pagecheckerboard="true" />
  <path
     style="opacity:1;fill:#0c417f;fill-opacity:1;stroke:#008000;stroke-width:90.7365036;stroke-linejoin:round;stroke-miterlimit:4;stroke-dasharray:none;stroke-opacity:0.00738005"
     d="m 24.146132,457.88313 c -7.78564,-1.90793 -14.2952999,-8.39435 -15.8902799,-15.83355 -0.71015,-3.31223 -0.91654,-58.94102 -0.71915,-193.83108 l 0.27686,-189.185609 1.95847,-3.62946 c 2.4993699,-4.63185 6.2094699,-8.145366 10.4886499,-9.932882 3.02026,-1.261634 27.87286,-1.409181 237.360088,-1.409181 h 233.98662 l 3.99902,2.110687 c 5.29856,2.796592 9.51309,8.453306 10.75088,14.429756 0.7019,3.38901 0.92009,59.777809 0.74879,193.514569 l -0.24174,188.73193 -1.95848,3.62946 c -2.29164,4.2469 -5.84607,7.73685 -10.29095,10.10427 -3.07286,1.63666 -10.70298,1.69596 -235.46123,1.82981 -127.757,0.0761 -233.510398,-0.16183 -235.007548,-0.52872 z m 65.4699,-262.51771 c 0.38523,-0.6233 0.97819,-3.48921 1.31771,-6.36868 0.33952,-2.87947 1.14415,-5.87021 1.78807,-6.6461 0.64393,-0.77588 4.123826,-2.81203 7.733118,-4.52479 10.39802,-4.93428 14.90797,-11.67119 15.60281,-23.30729 0.38929,-6.51911 0.20518,-7.48452 -2.45945,-12.89715 -3.05283,-6.20119 -4.23796,-7.27622 -13.880572,-12.59114 -6.913236,-3.81052 -8.880256,-6.08058 -8.880256,-10.24837 0,-4.44818 1.65895,-5.41135 10.489578,-6.09012 11.6403,-0.89475 12.19454,-1.11107 12.19454,-4.75954 0,-4.10134 -4.6726,-8.75286 -13.854942,-13.79242 -3.82778,-2.10081 -7.380246,-4.60565 -7.894386,-5.56632 -0.51413,-0.96067 -0.93479,-3.765088 -0.93479,-6.232048 0,-5.70464 -1.29453,-6.79908 -8.59169,-7.26373 -8.02631,-0.51108 -9.23566,0.37175 -10.00415,7.30302 -0.79664,7.185098 -2.09193,9.188568 -7.81592,12.089138 -2.5313,1.2827 -6.38332,3.97382 -8.56005,5.98025 -14.32982,13.20877 -10.25903,34.82372 8.09109,42.96179 6.52176,2.89234 7.77316,4.60612 8.4198,11.53093 l 0.54998,5.88955 -4.32797,0.59321 c -2.38038,0.32627 -6.61878,0.64152 -9.41867,0.70056 -6.55031,0.13814 -10.28896,0.96444 -10.75917,2.37794 -0.60939,1.83187 9.68207,10.91682 15.91404,14.04839 3.175,1.59544 6.10267,3.5299 6.50592,4.29879 0.40325,0.76888 1.03007,3.64371 1.39294,6.38849 0.36286,2.74477 1.07234,5.5009 1.57662,6.12471 1.25785,1.55602 14.84421,1.55682 15.8058,9.1e-4 z m 123.715708,-7.94038 v -9.07365 H 177.9445 142.55727 v 9.07365 9.07366 h 35.38723 35.38724 z"
     id="path864"
     inkscape:connector-curvature="0" />
</svg>
