<?xml version="1.0" encoding="UTF-8" standalone="no"?>
<svg
   xmlns:dc="http://purl.org/dc/elements/1.1/"
   xmlns:cc="http://creativecommons.org/ns#"
   xmlns:rdf="http://www.w3.org/1999/02/22-rdf-syntax-ns#"
   xmlns:svg="http://www.w3.org/2000/svg"
   xmlns="http://www.w3.org/2000/svg"
   xmlns:sodipodi="http://sodipodi.sourceforge.net/DTD/sodipodi-0.dtd"
   xmlns:inkscape="http://www.inkscape.org/namespaces/inkscape"
   viewBox="0 0 32 32"
   version="1.1"
   id="svg12"
   sodipodi:docname="file_type_vscode_insiders_icon_130085.svg"
   inkscape:export-filename="/home/p____a____s/Downloads/file_type_vscode_insiders_icon_130085.png"
   inkscape:export-xdpi="31"
   inkscape:export-ydpi="31"
   inkscape:version="0.92.5 (2060ec1f9f, 2020-04-08)">
  <metadata
     id="metadata18">
    <rdf:RDF>
      <cc:Work
         rdf:about="">
        <dc:format>image/svg+xml</dc:format>
        <dc:type
           rdf:resource="http://purl.org/dc/dcmitype/StillImage" />
        <dc:title>file_type_vscode-insiders</dc:title>
      </cc:Work>
    </rdf:RDF>
  </metadata>
  <defs
     id="defs16">
    <filter
       style="color-interpolation-filters:sRGB;"
       inkscape:label="Blur"
       id="filter3053">
      <feGaussianBlur
         stdDeviation="2 2"
         result="blur"
         id="feGaussianBlur3051" />
    </filter>
    <filter
       style="color-interpolation-filters:sRGB;"
       inkscape:label="Blur"
       id="filter3057">
      <feGaussianBlur
         stdDeviation="2 2"
         result="blur"
         id="feGaussianBlur3055" />
    </filter>
    <filter
       style="color-interpolation-filters:sRGB;"
       inkscape:label="Blur"
       id="filter3061">
      <feGaussianBlur
         stdDeviation="2 2"
         result="blur"
         id="feGaussianBlur3059" />
    </filter>
    <filter
       style="color-interpolation-filters:sRGB;"
       inkscape:label="Blur"
       id="filter3065">
      <feGaussianBlur
         stdDeviation="2 2"
         result="blur"
         id="feGaussianBlur3063" />
    </filter>
    <filter
       inkscape:collect="always"
       style="color-interpolation-filters:sRGB"
       id="filter3711"
       x="-1.9170733"
       width="4.8341466"
       y="-2.2223599"
       height="5.4447199">
      <feGaussianBlur
         inkscape:collect="always"
         stdDeviation="6.0727041"
         id="feGaussianBlur3713" />
    </filter>
  </defs>
  <sodipodi:namedview
     pagecolor="#ffffff"
     bordercolor="#666666"
     borderopacity="1"
     objecttolerance="10"
     gridtolerance="10"
     guidetolerance="10"
     inkscape:pageopacity="0"
     inkscape:pageshadow="2"
     inkscape:window-width="1366"
     inkscape:window-height="739"
     id="namedview14"
     showgrid="false"
     inkscape:zoom="20.85965"
     inkscape:cx="20.641735"
     inkscape:cy="13.116123"
     inkscape:window-x="0"
     inkscape:window-y="0"
     inkscape:window-maximized="1"
     inkscape:current-layer="svg12"
     inkscape:pagecheckerboard="true" />
  <title
     id="title2">file_type_vscode-insiders</title>
  <path
     inkscape:connector-curvature="0"
     d="m 9.172,13.608 -3.633,3.131 a 1.166,1.166 0 0 0 -0.08,1.647 c 0.025,0.027 0.05,0.053 0.077,0.077 l 1.541,1.399999 a 1.166,1.166 0 0 0 1.489,0.066 L 12.759,16.874 Z"
     style="fill:#0c4383;fill-opacity:1;filter:url(#filter3711)"
     id="path6-7"
     transform="matrix(0.38867009,0,0,0.38867009,9.9131179,11.584977)" />
  <path
     d="M20.375,3.291a.874.874,0,0,1,1.463.647V10.25l-8.36,6.624L9.172,13.608Z"
     style="fill:#0c4383;fill-opacity:1"
     id="path4" />
  <path
     d="M6.013,16.669,2.38,19.8A1.166,1.166,0,0,0,2.3,21.447c.025.027.05.053.077.077l1.541,1.4a1.166,1.166,0,0,0,1.489.066L9.6,19.935Z"
     style="fill:#0c4383;fill-opacity:1"
     id="path6" />
  <path
     d="M21.838,21.749,5.412,9.007a1.165,1.165,0,0,0-1.489.066l-1.541,1.4a1.166,1.166,0,0,0-.077,1.647c.025.027.05.053.077.077l17.99,16.5a.875.875,0,0,0,1.466-.645Z"
     style="fill:#22a0b6;fill-opacity:1;opacity:0.973"
     id="path8" />
  <path
     d="M23.244,29.747a1.745,1.745,0,0,1-1.989-.338A1.025,1.025,0,0,0,23,28.684V3.316a1.025,1.025,0,0,0-1.749-.725,1.745,1.745,0,0,1,1.989-.338l5.765,2.772A1.748,1.748,0,0,1,30,6.6V25.4a1.748,1.748,0,0,1-.991,1.576Z"
     style="fill:#00ff9f;fill-opacity:1"
     id="path10" />
</svg>
