<?xml version="1.0" encoding="UTF-8" standalone="no"?>
<svg
   xmlns:dc="http://purl.org/dc/elements/1.1/"
   xmlns:cc="http://creativecommons.org/ns#"
   xmlns:rdf="http://www.w3.org/1999/02/22-rdf-syntax-ns#"
   xmlns:svg="http://www.w3.org/2000/svg"
   xmlns="http://www.w3.org/2000/svg"
   xmlns:sodipodi="http://sodipodi.sourceforge.net/DTD/sodipodi-0.dtd"
   xmlns:inkscape="http://www.inkscape.org/namespaces/inkscape"
   width="32"
   height="32"
   viewBox="0 0 32 32"
   version="1.1"
   id="svg4"
   sodipodi:docname="google_chrome_logo_icon_145233.svg"
   inkscape:version="0.92.5 (2060ec1f9f, 2020-04-08)">
  <metadata
     id="metadata10">
    <rdf:RDF>
      <cc:Work
         rdf:about="">
        <dc:format>image/svg+xml</dc:format>
        <dc:type
           rdf:resource="http://purl.org/dc/dcmitype/StillImage" />
        <dc:title />
      </cc:Work>
    </rdf:RDF>
  </metadata>
  <defs
     id="defs8">
    <filter
       style="color-interpolation-filters:sRGB;"
       inkscape:label="Blur"
       id="filter1630">
      <feGaussianBlur
         stdDeviation="9.51992 10.61"
         result="blur"
         id="feGaussianBlur1628" />
    </filter>
    <filter
       style="color-interpolation-filters:sRGB;"
       inkscape:label="Blur"
       id="filter1634">
      <feGaussianBlur
         stdDeviation="9.51992 10.61"
         result="blur"
         id="feGaussianBlur1632" />
    </filter>
    <filter
       style="color-interpolation-filters:sRGB;"
       inkscape:label="Blur"
       id="filter1638">
      <feGaussianBlur
         stdDeviation="9.51992 10.61"
         result="blur"
         id="feGaussianBlur1636" />
    </filter>
    <filter
       style="color-interpolation-filters:sRGB;"
       inkscape:label="Blur"
       id="filter1642">
      <feGaussianBlur
         stdDeviation="9.51992 10.61"
         result="blur"
         id="feGaussianBlur1640" />
    </filter>
    <filter
       style="color-interpolation-filters:sRGB;"
       inkscape:label="Cross Blur"
       id="filter3238">
      <feColorMatrix
         in="SourceGraphic"
         values="1 0 0 0 0 0 1 0 0 0 0 0 1 0 0 -0.2125 -0.7154 -0.0721 1 0 "
         result="colormatrix"
         id="feColorMatrix3228" />
      <feComposite
         in="SourceGraphic"
         in2="colormatrix"
         operator="arithmetic"
         k2="1"
         k3="1.41"
         k4="0"
         result="composite"
         id="feComposite3230" />
      <feGaussianBlur
         stdDeviation="1.48 0.01"
         result="blur1"
         id="feGaussianBlur3232" />
      <feGaussianBlur
         in="composite"
         stdDeviation="0.01 2.18"
         result="blur2"
         id="feGaussianBlur3234" />
      <feBlend
         in="blur2"
         in2="blur1"
         mode="lighten"
         result="blend"
         id="feBlend3236" />
    </filter>
    <filter
       style="color-interpolation-filters:sRGB;"
       inkscape:label="Cross Blur"
       id="filter3250">
      <feColorMatrix
         in="SourceGraphic"
         values="1 0 0 0 0 0 1 0 0 0 0 0 1 0 0 -0.2125 -0.7154 -0.0721 1 0 "
         result="colormatrix"
         id="feColorMatrix3240" />
      <feComposite
         in="SourceGraphic"
         in2="colormatrix"
         operator="arithmetic"
         k2="1"
         k3="1.41"
         k4="0"
         result="composite"
         id="feComposite3242" />
      <feGaussianBlur
         stdDeviation="1.48 0.01"
         result="blur1"
         id="feGaussianBlur3244" />
      <feGaussianBlur
         in="composite"
         stdDeviation="0.01 2.18"
         result="blur2"
         id="feGaussianBlur3246" />
      <feBlend
         in="blur2"
         in2="blur1"
         mode="lighten"
         result="blend"
         id="feBlend3248" />
    </filter>
    <filter
       style="color-interpolation-filters:sRGB;"
       inkscape:label="Cross Blur"
       id="filter3262">
      <feColorMatrix
         in="SourceGraphic"
         values="1 0 0 0 0 0 1 0 0 0 0 0 1 0 0 -0.2125 -0.7154 -0.0721 1 0 "
         result="colormatrix"
         id="feColorMatrix3252" />
      <feComposite
         in="SourceGraphic"
         in2="colormatrix"
         operator="arithmetic"
         k2="1"
         k3="1.41"
         k4="0"
         result="composite"
         id="feComposite3254" />
      <feGaussianBlur
         stdDeviation="1.48 0.01"
         result="blur1"
         id="feGaussianBlur3256" />
      <feGaussianBlur
         in="composite"
         stdDeviation="0.01 2.18"
         result="blur2"
         id="feGaussianBlur3258" />
      <feBlend
         in="blur2"
         in2="blur1"
         mode="lighten"
         result="blend"
         id="feBlend3260" />
    </filter>
    <filter
       style="color-interpolation-filters:sRGB;"
       inkscape:label="Cross Blur"
       id="filter3274">
      <feColorMatrix
         in="SourceGraphic"
         values="1 0 0 0 0 0 1 0 0 0 0 0 1 0 0 -0.2125 -0.7154 -0.0721 1 0 "
         result="colormatrix"
         id="feColorMatrix3264" />
      <feComposite
         in="SourceGraphic"
         in2="colormatrix"
         operator="arithmetic"
         k2="1"
         k3="1.41"
         k4="0"
         result="composite"
         id="feComposite3266" />
      <feGaussianBlur
         stdDeviation="1.48 0.01"
         result="blur1"
         id="feGaussianBlur3268" />
      <feGaussianBlur
         in="composite"
         stdDeviation="0.01 2.18"
         result="blur2"
         id="feGaussianBlur3270" />
      <feBlend
         in="blur2"
         in2="blur1"
         mode="lighten"
         result="blend"
         id="feBlend3272" />
    </filter>
    <filter
       style="color-interpolation-filters:sRGB;"
       inkscape:label="Blur"
       id="filter880">
      <feGaussianBlur
         stdDeviation="6.8 4.09"
         result="blur"
         id="feGaussianBlur878" />
    </filter>
  </defs>
  <sodipodi:namedview
     pagecolor="#ffffff"
     bordercolor="#666666"
     borderopacity="1"
     objecttolerance="10"
     gridtolerance="10"
     guidetolerance="10"
     inkscape:pageopacity="0"
     inkscape:pageshadow="2"
     inkscape:window-width="1366"
     inkscape:window-height="743"
     id="namedview6"
     showgrid="false"
     inkscape:zoom="10.429825"
     inkscape:cx="37.914378"
     inkscape:cy="11.454517"
     inkscape:window-x="0"
     inkscape:window-y="0"
     inkscape:window-maximized="1"
     inkscape:current-layer="svg4"
     inkscape:pagecheckerboard="true" />
  <path
     style="opacity:1;fill:#ff00ff;fill-opacity:0.19607843;stroke:#000000;stroke-width:0;stroke-miterlimit:4;stroke-dasharray:none;stroke-opacity:0;filter:url(#filter880)"
     d="M 14.431876,27.53233 C 9.5346549,26.775882 5.7115869,23.011172 4.8399509,18.086815 3.6363849,11.287187 9.0750379,4.8118025 16.003594,4.7951335 c 4.212498,-0.01015 7.972977,2.284846 9.91604,6.0516655 2.464868,4.778388 1.726757,9.70393 -2.021178,13.487679 -2.54778,2.572125 -5.989875,3.734876 -9.46658,3.197852 z"
     id="path18-3"
     inkscape:connector-curvature="0"
     transform="matrix(0.94268133,0,0,0.94268133,0.96452766,-0.08636531)" />
  <path
     style="opacity:1;fill:#b000ff;fill-opacity:1;stroke:#000000;stroke-width:0;stroke-miterlimit:4;stroke-dasharray:none;stroke-opacity:0"
     d="m 14.922613,29.987697 c 0,-0.170688 2.393014,-4.191166 5.523191,-9.279461 1.808772,-2.940266 2.027604,-3.391705 2.233262,-4.607114 0.125977,-0.74451 0.0603,-2.034246 -0.142483,-2.798243 -0.174266,-0.656535 -0.604451,-1.599489 -0.916118,-2.008105 -0.126277,-0.165558 -0.207711,-0.322897 -0.180968,-0.349641 0.03339,-0.03339 7.969498,-2.0578837 8.228745,-2.0991487 0.0088,-0.0014 0.145439,0.3319157 0.303674,0.7406977 0.381129,0.984611 0.762886,2.516769 0.900024,3.612208 0.154918,1.237435 0.06493,3.622604 -0.179859,4.767146 -1.276514,5.968563 -5.941366,10.599297 -11.871696,11.784873 -0.91506,0.182935 -3.897772,0.364134 -3.897772,0.236788 z"
     id="path20"
     inkscape:connector-curvature="0" />
  <path
     style="opacity:1;fill:#8900ff;fill-opacity:1;stroke:#000000;stroke-width:0;stroke-miterlimit:4;stroke-dasharray:none;stroke-opacity:0"
     d="M 6.8732859,9.381275 C 5.2983626,7.7385725 3.9877928,6.3372226 3.9609086,6.2671635 3.8682932,6.0258116 5.4917107,4.2440176 6.6343667,3.3328897 9.5320394,1.0223514 13.39069,-0.16687321 17.093321,0.10947189 c 2.015292,0.15041104 3.661839,0.60597254 5.531955,1.53056471 2.458761,1.2156191 4.377557,2.8918206 5.874001,5.1313443 0.418145,0.6257782 0.837678,1.3684534 0.837678,1.4828904 0,0.02675 -3.070931,0.04944 -6.82429,0.05042 -4.023262,10e-4 -7.077824,0.03843 -7.441989,0.09108 -0.863608,0.124848 -1.883682,0.482497 -2.625527,0.9205417 -0.78181,0.461643 -1.789638,1.47291 -2.207197,2.214732 -0.173422,0.308096 -0.3571311,0.622452 -0.4082413,0.698568 -0.075824,0.112924 -0.6199514,-0.411311 -2.9564248,-2.848338 z"
     id="path22"
     inkscape:connector-curvature="0" />
  <path
     style="opacity:1;fill:#ff0677;fill-opacity:1;stroke:#000000;stroke-width:0;stroke-miterlimit:4;stroke-dasharray:none;stroke-opacity:0"
     d="M 13.030731,29.732703 C 7.1864915,28.510934 2.6216297,23.947724 1.3106846,18.016894 1.0416468,16.799745 0.97441515,14.201859 1.1764143,12.82858 1.4432482,11.014526 2.0412247,9.28083 2.9606032,7.6557298 l 0.544515,-0.9624882 0.8027834,1.4022537 c 0.4415309,0.771239 1.2818159,2.2178667 1.8672998,3.2147297 1.6266022,2.769497 2.4330337,4.19493 3.2934677,5.821463 1.0954659,2.070831 1.8004509,2.95785 2.9200599,3.674057 1.070065,0.684512 2.743337,1.086661 4.063359,0.976575 l 0.69612,-0.05806 -1.069506,3.356835 c -0.588229,1.846262 -1.172522,3.691294 -1.298429,4.100077 l -0.228923,0.743239 -0.332382,-0.0064 c -0.182813,-0.0035 -0.717519,-0.08691 -1.188237,-0.185317 z"
     id="path16"
     inkscape:connector-curvature="0" />
  <path
     style="opacity:1;fill:#26a1b7;fill-opacity:1;stroke:#000000;stroke-width:0;stroke-miterlimit:4;stroke-dasharray:none;stroke-opacity:0"
     d="m 15.345081,20.370104 c -2.274235,-0.351289 -4.049642,-2.099595 -4.454423,-4.386432 -0.558928,-3.157701 1.966745,-6.164824 5.184318,-6.172565 1.956255,-0.0047 3.702596,1.061067 4.604941,2.810351 1.144668,2.219051 0.801894,4.506439 -0.938621,6.263585 -1.183172,1.194477 -2.781657,1.734451 -4.396215,1.485061 z"
     id="path18"
     inkscape:connector-curvature="0" />
</svg>
