<?xml version="1.0" encoding="UTF-8" standalone="no"?>
<svg
   xmlns:dc="http://purl.org/dc/elements/1.1/"
   xmlns:cc="http://creativecommons.org/ns#"
   xmlns:rdf="http://www.w3.org/1999/02/22-rdf-syntax-ns#"
   xmlns:svg="http://www.w3.org/2000/svg"
   xmlns="http://www.w3.org/2000/svg"
   xmlns:sodipodi="http://sodipodi.sourceforge.net/DTD/sodipodi-0.dtd"
   xmlns:inkscape="http://www.inkscape.org/namespaces/inkscape"
   width="16"
   height="16"
   version="1"
   id="svg7"
   sodipodi:docname="telegramew-panel.svg"
   inkscape:version="0.92.5 (2060ec1f9f, 2020-04-08)">
  <metadata
     id="metadata11">
    <rdf:RDF>
      <cc:Work
         rdf:about="">
        <dc:format>image/svg+xml</dc:format>
        <dc:type
           rdf:resource="http://purl.org/dc/dcmitype/StillImage" />
        <dc:title></dc:title>
      </cc:Work>
    </rdf:RDF>
  </metadata>
  <sodipodi:namedview
     pagecolor="#ffffff"
     bordercolor="#666666"
     borderopacity="1"
     objecttolerance="10"
     gridtolerance="10"
     guidetolerance="10"
     inkscape:pageopacity="0"
     inkscape:pageshadow="2"
     inkscape:window-width="1366"
     inkscape:window-height="739"
     id="namedview9"
     showgrid="false"
     inkscape:pagecheckerboard="true"
     inkscape:zoom="14.75"
     inkscape:cx="5.6271186"
     inkscape:cy="8"
     inkscape:window-x="0"
     inkscape:window-y="0"
     inkscape:window-maximized="1"
     inkscape:current-layer="svg7" />
  <defs
     id="defs3">
    <style
       id="current-color-scheme"
       type="text/css">
   .ColorScheme-Text { color:#444444; } .ColorScheme-Highlight { color:#4285f4; }
  </style>
  </defs>
  <path
     style="color:#444444;fill:#00f79a;fill-opacity:1;stroke-width:0.95306391"
     class="ColorScheme-Text"
     d="M 13.59642,13.460768 C 13.838148,13.003776 15.227131,5.1897096 15.425691,3.1697564 15.640503,1.1681558 14.520451,1.5403706 13.489824,1.8785038 10.961297,2.7109499 2.9668955,6.276238 0.77867267,7.3898638 0.23995287,7.6076695 0.00709481,7.9772204 0.39907732,8.2970757 0.73657357,8.5681912 1.97154,8.9405595 2.9675091,9.1295286 3.8165273,9.3803118 4.4760057,9.1400972 5.0847603,8.805293 6.5477134,7.9596027 10.906982,5.0789575 11.141733,4.9290387 11.376486,4.7791198 11.633417,5.0573459 11.502035,5.1920364 11.370652,5.3267262 8.2833489,8.0261587 7.2697155,9.246661 c -0.537007,0.6710865 -0.5209211,1.029371 0.030743,1.452553 1.2376116,0.946221 4.5442555,3.103363 5.0362715,3.233748 0.627396,0.166261 0.994842,0.02853 1.259697,-0.472194 z"
     id="path5"
     inkscape:connector-curvature="0" />
</svg>
